<svg width="831" height="134" viewBox="0 0 831 134" fill="none" xmlns="http://www.w3.org/2000/svg">
<g clip-path="url(#clip0)">
<path d="M567.948 72.6646L563.112 81.5163C561.646 84.1997 562.383 87.5603 564.755 89.0077L565.968 89.7477C565.044 91.7503 565.637 94.1418 567.37 95.1996L576.208 100.592C578.026 101.701 580.418 100.931 581.541 98.8749L588.978 85.2627C589.359 84.5653 589.168 83.695 588.551 83.3188C587.935 82.9425 587.126 83.203 586.745 83.9004L579.308 97.5126C578.946 98.1756 578.174 98.4242 577.588 98.0664L568.75 92.6742C568.164 92.3165 567.982 91.486 568.344 90.8228C569.218 89.2234 585.564 59.3041 586.437 57.7058C586.799 57.0427 587.571 56.7941 588.157 57.1518L596.995 62.5442C597.581 62.9018 597.764 63.7326 597.401 64.3956L589.965 78.0078C589.584 78.7052 589.774 79.5755 590.391 79.9517C591.008 80.328 591.816 80.0675 592.197 79.3701L599.634 65.7579C600.757 63.7021 600.192 61.1276 598.375 60.0187L589.537 54.6264C587.803 53.5686 585.547 54.2218 584.368 56.069L583.155 55.329C582.405 54.8716 581.581 54.6598 580.757 54.668L584.177 48.4081C589.48 38.7013 598.165 31.5131 608.119 28.5469C609.143 30.4035 611.091 31.4304 613.204 31.1212C627.524 29.0251 640.954 37.1439 646.435 51.3965C647.262 53.5484 649.157 54.8165 651.237 54.7621C653.769 65.2074 652.231 76.632 646.955 86.2884L643.362 92.8655C642.957 92.1075 642.371 91.4587 641.621 91.0013L640.408 90.2614C641.333 88.2587 640.74 85.8672 639.006 84.8093L637.192 83.7025C636.575 83.3262 635.767 83.5867 635.386 84.2841C635.005 84.9814 635.196 85.8517 635.812 86.2279L637.626 87.3348C638.213 87.6925 638.395 88.5233 638.033 89.1863L619.94 122.303C619.578 122.966 618.806 123.215 618.22 122.857L609.382 117.465C608.795 117.107 608.613 116.277 608.975 115.613L627.068 82.4963C627.43 81.8333 628.202 81.5848 628.788 81.9425L630.603 83.0494C631.219 83.4257 632.028 83.1652 632.409 82.4678C632.79 81.7704 632.599 80.9002 631.982 80.5239L630.168 79.417C628.351 78.3081 625.958 79.0783 624.835 81.1341L606.743 114.251C605.62 116.307 606.184 118.881 608.002 119.99L616.84 125.383C618.574 126.441 620.83 125.787 622.009 123.94L623.222 124.68C625.594 126.127 628.716 125.122 630.182 122.438L635.018 113.587C637.942 114.586 641.332 113.183 643.034 110.068C644.272 107.801 652.496 92.7481 653.758 90.4387C666.841 66.4911 660.127 36.8568 639.2 24.0884C618.29 11.3307 590.649 19.959 577.548 43.9403L566.823 63.5699C565.122 66.6842 565.667 70.4882 567.948 72.6646ZM627.95 121.076C627.244 122.367 625.742 122.851 624.601 122.155L623.399 121.421L639.039 92.7931L640.241 93.5267C641.382 94.223 641.737 95.8395 641.032 97.1304L627.95 121.076ZM581.775 57.8544L582.978 58.5881L567.338 87.2159L566.135 86.4822C564.994 85.786 564.639 84.1694 565.345 82.8786C565.958 81.7564 577.789 60.1005 578.427 58.9327C579.132 57.642 580.634 57.1582 581.775 57.8544V57.8544ZM640.801 108.706C639.865 110.418 638.09 111.28 636.444 110.977L640.929 102.768L643.266 104.194L640.801 108.706ZM651.525 89.0766L644.646 101.669L642.309 100.243C643.001 98.9757 648.337 89.2086 649.188 87.6507C654.796 77.3853 656.465 65.2564 653.84 54.1391L656.533 53.2721C659.281 64.8696 657.735 77.7104 651.525 89.0766V89.0766ZM637.82 26.6139C646.411 31.8555 652.759 40.3224 655.81 50.5614C651.367 51.9924 652.247 51.7093 651.94 51.8006C650.648 52.1435 649.369 51.4707 648.864 50.1547C642.991 34.8822 628.567 25.9999 613.007 28.2773C611.621 28.4802 610.395 27.5709 610.082 26.1397L609.2 22.1229C619.117 19.7962 629.229 21.3724 637.82 26.6139V26.6139ZM579.78 45.3026C586.015 33.8911 595.783 26.0908 606.618 22.8172L607.287 25.8658C596.754 29.0909 587.573 36.7435 581.944 47.0458L575.238 59.3207L572.901 57.8947L579.78 45.3026ZM571.521 60.4202L573.858 61.8461L569.373 70.055C568.303 68.7002 568.121 66.6443 569.056 64.9322L571.521 60.4202Z" fill="#EECBFA"/>
</g>
<path d="M206.963 97.3054V62.3054H214.563L225.713 84.5054L236.713 62.3054H244.313V97.3054H237.913V73.1554L228.163 92.3054H223.113L213.363 73.1554V97.3054H206.963ZM268.003 97.9054C265.503 97.9054 263.287 97.3721 261.353 96.3054C259.42 95.2388 257.903 93.7388 256.803 91.8054C255.703 89.8721 255.153 87.6388 255.153 85.1054C255.153 82.5388 255.687 80.2554 256.753 78.2554C257.853 76.2554 259.353 74.7054 261.253 73.6054C263.187 72.4721 265.453 71.9054 268.053 71.9054C270.487 71.9054 272.637 72.4388 274.503 73.5054C276.37 74.5721 277.82 76.0388 278.853 77.9054C279.92 79.7388 280.453 81.7888 280.453 84.0554C280.453 84.4221 280.437 84.8054 280.403 85.2054C280.403 85.6054 280.387 86.0221 280.353 86.4554H261.503C261.637 88.3888 262.303 89.9054 263.503 91.0054C264.737 92.1054 266.22 92.6554 267.953 92.6554C269.253 92.6554 270.337 92.3721 271.203 91.8054C272.103 91.2054 272.77 90.4388 273.203 89.5054H279.703C279.237 91.0721 278.453 92.5054 277.353 93.8054C276.287 95.0721 274.953 96.0721 273.353 96.8054C271.787 97.5388 270.003 97.9054 268.003 97.9054ZM268.053 77.1054C266.487 77.1054 265.103 77.5554 263.903 78.4554C262.703 79.3221 261.937 80.6554 261.603 82.4554H273.953C273.853 80.8221 273.253 79.5221 272.153 78.5554C271.053 77.5888 269.687 77.1054 268.053 77.1054ZM302.236 97.9054C299.903 97.9054 297.82 97.3388 295.986 96.2054C294.153 95.0721 292.703 93.5221 291.636 91.5554C290.57 89.5888 290.036 87.3554 290.036 84.8554C290.036 82.3554 290.57 80.1388 291.636 78.2054C292.703 76.2388 294.153 74.7054 295.986 73.6054C297.82 72.4721 299.903 71.9054 302.236 71.9054C304.103 71.9054 305.736 72.2554 307.136 72.9554C308.536 73.6554 309.67 74.6388 310.536 75.9054V61.3054H316.936V97.3054H311.236L310.536 93.7554C309.736 94.8554 308.67 95.8221 307.336 96.6554C306.036 97.4888 304.336 97.9054 302.236 97.9054ZM303.586 92.3054C305.653 92.3054 307.336 91.6221 308.636 90.2554C309.97 88.8554 310.636 87.0721 310.636 84.9054C310.636 82.7388 309.97 80.9721 308.636 79.6054C307.336 78.2054 305.653 77.5054 303.586 77.5054C301.553 77.5054 299.87 78.1888 298.536 79.5554C297.203 80.9221 296.536 82.6888 296.536 84.8554C296.536 87.0221 297.203 88.8054 298.536 90.2054C299.87 91.6054 301.553 92.3054 303.586 92.3054ZM331.903 68.6554C330.737 68.6554 329.77 68.3054 329.003 67.6054C328.27 66.9054 327.903 66.0221 327.903 64.9554C327.903 63.8888 328.27 63.0221 329.003 62.3554C329.77 61.6554 330.737 61.3054 331.903 61.3054C333.07 61.3054 334.02 61.6554 334.753 62.3554C335.52 63.0221 335.903 63.8888 335.903 64.9554C335.903 66.0221 335.52 66.9054 334.753 67.6054C334.02 68.3054 333.07 68.6554 331.903 68.6554ZM328.703 97.3054V72.5054H335.103V97.3054H328.703ZM356.084 97.9054C352.984 97.9054 350.584 96.9388 348.884 95.0054C347.217 93.0721 346.384 90.2388 346.384 86.5054V72.5054H352.734V85.9054C352.734 88.0388 353.167 89.6721 354.034 90.8054C354.9 91.9388 356.267 92.5054 358.134 92.5054C359.9 92.5054 361.35 91.8721 362.484 90.6054C363.65 89.3388 364.234 87.5721 364.234 85.3054V72.5054H370.634V97.3054H364.984L364.484 93.1054C363.717 94.5721 362.6 95.7388 361.134 96.6054C359.7 97.4721 358.017 97.9054 356.084 97.9054ZM382.203 97.3054V72.5054H387.853L388.403 75.8554C389.203 74.6554 390.253 73.7054 391.553 73.0054C392.887 72.2721 394.42 71.9054 396.153 71.9054C399.987 71.9054 402.703 73.3888 404.303 76.3554C405.203 74.9888 406.403 73.9054 407.903 73.1054C409.437 72.3054 411.103 71.9054 412.903 71.9054C416.137 71.9054 418.62 72.8721 420.353 74.8054C422.087 76.7388 422.953 79.5721 422.953 83.3054V97.3054H416.553V83.9054C416.553 81.7721 416.137 80.1388 415.303 79.0054C414.503 77.8721 413.253 77.3054 411.553 77.3054C409.82 77.3054 408.42 77.9388 407.353 79.2054C406.32 80.4721 405.803 82.2388 405.803 84.5054V97.3054H399.403V83.9054C399.403 81.7721 398.987 80.1388 398.153 79.0054C397.32 77.8721 396.037 77.3054 394.303 77.3054C392.603 77.3054 391.22 77.9388 390.153 79.2054C389.12 80.4721 388.603 82.2388 388.603 84.5054V97.3054H382.203ZM434.18 97.3054V62.3054H447.03C449.83 62.3054 452.13 62.7888 453.93 63.7554C455.763 64.6888 457.13 65.9721 458.03 67.6054C458.93 69.2054 459.38 70.9888 459.38 72.9554C459.38 75.0888 458.813 77.0388 457.68 78.8054C456.58 80.5721 454.846 81.8554 452.48 82.6554L459.73 97.3054H452.38L445.88 83.5054H440.58V97.3054H434.18ZM440.58 78.8054H446.63C448.763 78.8054 450.33 78.2888 451.33 77.2554C452.33 76.2221 452.83 74.8554 452.83 73.1554C452.83 71.4888 452.33 70.1554 451.33 69.1554C450.363 68.1554 448.78 67.6554 446.58 67.6554H440.58V78.8054ZM480.718 97.9054C478.218 97.9054 476.002 97.3721 474.068 96.3054C472.135 95.2388 470.618 93.7388 469.518 91.8054C468.418 89.8721 467.868 87.6388 467.868 85.1054C467.868 82.5388 468.402 80.2554 469.468 78.2554C470.568 76.2554 472.068 74.7054 473.968 73.6054C475.902 72.4721 478.168 71.9054 480.768 71.9054C483.202 71.9054 485.352 72.4388 487.218 73.5054C489.085 74.5721 490.535 76.0388 491.568 77.9054C492.635 79.7388 493.168 81.7888 493.168 84.0554C493.168 84.4221 493.152 84.8054 493.118 85.2054C493.118 85.6054 493.102 86.0221 493.068 86.4554H474.218C474.352 88.3888 475.018 89.9054 476.218 91.0054C477.452 92.1054 478.935 92.6554 480.668 92.6554C481.968 92.6554 483.052 92.3721 483.918 91.8054C484.818 91.2054 485.485 90.4388 485.918 89.5054H492.418C491.952 91.0721 491.168 92.5054 490.068 93.8054C489.002 95.0721 487.668 96.0721 486.068 96.8054C484.502 97.5388 482.718 97.9054 480.718 97.9054ZM480.768 77.1054C479.202 77.1054 477.818 77.5554 476.618 78.4554C475.418 79.3221 474.652 80.6554 474.318 82.4554H486.668C486.568 80.8221 485.968 79.5221 484.868 78.5554C483.768 77.5888 482.402 77.1054 480.768 77.1054ZM512.101 97.9054C509.968 97.9054 508.218 97.5721 506.851 96.9054C505.484 96.2054 504.468 95.2888 503.801 94.1554C503.134 93.0221 502.801 91.7721 502.801 90.4054C502.801 88.1054 503.701 86.2388 505.501 84.8054C507.301 83.3721 510.001 82.6554 513.601 82.6554H519.901V82.0554C519.901 80.3554 519.418 79.1054 518.451 78.3054C517.484 77.5054 516.284 77.1054 514.851 77.1054C513.551 77.1054 512.418 77.4221 511.451 78.0554C510.484 78.6554 509.884 79.5554 509.651 80.7554H503.401C503.568 78.9554 504.168 77.3888 505.201 76.0554C506.268 74.7221 507.634 73.7054 509.301 73.0054C510.968 72.2721 512.834 71.9054 514.901 71.9054C518.434 71.9054 521.218 72.7888 523.251 74.5554C525.284 76.3221 526.301 78.8221 526.301 82.0554V97.3054H520.851L520.251 93.3054C519.518 94.6388 518.484 95.7388 517.151 96.6054C515.851 97.4721 514.168 97.9054 512.101 97.9054ZM513.551 92.9054C515.384 92.9054 516.801 92.3054 517.801 91.1054C518.834 89.9054 519.484 88.4221 519.751 86.6554H514.301C512.601 86.6554 511.384 86.9721 510.651 87.6054C509.918 88.2054 509.551 88.9554 509.551 89.8554C509.551 90.8221 509.918 91.5721 510.651 92.1054C511.384 92.6388 512.351 92.9054 513.551 92.9054ZM548.809 97.9054C546.475 97.9054 544.392 97.3388 542.559 96.2054C540.725 95.0721 539.275 93.5221 538.209 91.5554C537.142 89.5888 536.609 87.3554 536.609 84.8554C536.609 82.3554 537.142 80.1388 538.209 78.2054C539.275 76.2388 540.725 74.7054 542.559 73.6054C544.392 72.4721 546.475 71.9054 548.809 71.9054C550.675 71.9054 552.309 72.2554 553.709 72.9554C555.109 73.6554 556.242 74.6388 557.109 75.9054V61.3054H563.509V97.3054H557.809L557.109 93.7554C556.309 94.8554 555.242 95.8221 553.909 96.6554C552.609 97.4888 550.909 97.9054 548.809 97.9054ZM550.159 92.3054C552.225 92.3054 553.909 91.6221 555.209 90.2554C556.542 88.8554 557.209 87.0721 557.209 84.9054C557.209 82.7388 556.542 80.9721 555.209 79.6054C553.909 78.2054 552.225 77.5054 550.159 77.5054C548.125 77.5054 546.442 78.1888 545.109 79.5554C543.775 80.9221 543.109 82.6888 543.109 84.8554C543.109 87.0221 543.775 88.8054 545.109 90.2054C546.442 91.6054 548.125 92.3054 550.159 92.3054ZM587.076 97.9054C584.576 97.9054 582.359 97.3721 580.426 96.3054C578.492 95.2388 576.976 93.7388 575.876 91.8054C574.776 89.8721 574.226 87.6388 574.226 85.1054C574.226 82.5388 574.759 80.2554 575.826 78.2554C576.926 76.2554 578.426 74.7054 580.326 73.6054C582.259 72.4721 584.526 71.9054 587.126 71.9054C589.559 71.9054 591.709 72.4388 593.576 73.5054C595.442 74.5721 596.892 76.0388 597.926 77.9054C598.992 79.7388 599.526 81.7888 599.526 84.0554C599.526 84.4221 599.509 84.8054 599.476 85.2054C599.476 85.6054 599.459 86.0221 599.426 86.4554H580.576C580.709 88.3888 581.376 89.9054 582.576 91.0054C583.809 92.1054 585.292 92.6554 587.026 92.6554C588.326 92.6554 589.409 92.3721 590.276 91.8054C591.176 91.2054 591.842 90.4388 592.276 89.5054H598.776C598.309 91.0721 597.526 92.5054 596.426 93.8054C595.359 95.0721 594.026 96.0721 592.426 96.8054C590.859 97.5388 589.076 97.9054 587.076 97.9054ZM587.126 77.1054C585.559 77.1054 584.176 77.5554 582.976 78.4554C581.776 79.3221 581.009 80.6554 580.676 82.4554H593.026C592.926 80.8221 592.326 79.5221 591.226 78.5554C590.126 77.5888 588.759 77.1054 587.126 77.1054ZM609.909 97.3054V72.5054H615.609L616.209 77.1554C617.109 75.5554 618.325 74.2888 619.859 73.3554C621.425 72.3888 623.259 71.9054 625.359 71.9054V78.6554H623.559C622.159 78.6554 620.909 78.8721 619.809 79.3054C618.709 79.7388 617.842 80.4888 617.209 81.5554C616.609 82.6221 616.309 84.1054 616.309 86.0054V97.3054H609.909Z" fill="#C774E4"/>
<defs>
<clipPath id="clip0">
<rect width="89.2755" height="98.2284" fill="white" transform="matrix(0.853652 0.520844 -0.479442 0.877574 601.095 0.839157)"/>
</clipPath>
</defs>
</svg>
