<svg width="89" height="86" viewBox="0 0 89 86" fill="none" xmlns="http://www.w3.org/2000/svg">
<path d="M6.13786 68.6242V77.3524C6.13786 79.9984 8.36641 82.1509 11.1056 82.1509H12.5061C12.6532 84.049 14.298 85.5501 16.2999 85.5501H26.505C28.6036 85.5501 30.3111 83.9011 30.3111 81.874V68.4517C30.3111 67.7641 29.7341 67.2066 29.022 67.2066C28.3099 67.2066 27.7329 67.7641 27.7329 68.4517V81.874C27.7329 82.5278 27.1821 83.0599 26.505 83.0599H16.3C15.6232 83.0599 15.0723 82.528 15.0723 81.874C15.0723 80.2969 15.0723 50.795 15.0723 49.219C15.0723 48.5652 15.623 48.0331 16.3 48.0331H26.5052C27.1821 48.0331 27.7331 48.5652 27.7331 49.219V62.6413C27.7331 63.3289 28.3101 63.8864 29.0222 63.8864C29.7342 63.8864 30.3112 63.3289 30.3112 62.6413V49.219C30.3112 47.1919 28.6038 45.5429 26.5052 45.5429H16.3C14.2982 45.5429 12.6533 47.044 12.5062 48.9421H11.1058C10.24 48.9421 9.42568 49.1576 8.71618 49.5353V43.3628C8.71618 33.7914 12.8362 24.5569 20.0535 17.8717C21.8185 18.7828 23.9917 18.6631 25.6756 17.4809C37.0851 9.4694 52.5575 9.41345 64.0471 17.4809C65.7819 18.6989 68.0225 18.782 69.7978 17.8033C76.9334 24.385 81.0062 33.5282 81.0062 43.05V49.5353C80.2967 49.1576 79.4823 48.9421 78.6166 48.9421H77.2163C77.0692 47.044 75.4243 45.5429 73.4223 45.5429H71.3275C70.6154 45.5429 70.0384 46.1004 70.0384 46.788C70.0384 47.4757 70.6154 48.0331 71.3275 48.0331H73.4223C74.0991 48.0331 74.6502 48.5652 74.6502 49.219V81.874C74.6502 82.5278 74.0993 83.0599 73.4223 83.0599H63.2171C62.5403 83.0599 61.9893 82.528 61.9893 81.874V49.219C61.9893 48.5652 62.5401 48.0331 63.2171 48.0331H65.312C66.024 48.0331 66.601 47.4757 66.601 46.788C66.601 46.1004 66.024 45.5429 65.312 45.5429H63.2171C61.1185 45.5429 59.4111 47.1919 59.4111 49.219V81.874C59.4111 83.9009 61.1185 85.5501 63.2171 85.5501H73.4223C75.4243 85.5501 77.0692 84.049 77.2163 82.1509H78.6166C81.3559 82.1509 83.5843 79.9984 83.5843 77.3524V68.6242C86.5896 68.044 88.8611 65.4765 88.8611 62.4056C88.8611 60.17 88.8611 45.3269 88.8611 43.0498C88.8611 19.4362 69.0255 0.55014 44.8611 0.55014C20.7166 0.55014 0.861084 19.4032 0.861084 43.05V62.4057C0.861084 65.4765 3.1326 68.044 6.13786 68.6242ZM81.0062 77.3524C81.0062 78.6252 79.9342 79.6607 78.6166 79.6607H77.2281V51.4323H78.6166C79.9342 51.4323 81.0062 52.4678 81.0062 53.7406V77.3524ZM11.1056 51.4323H12.4942V79.6607H11.1056C9.788 79.6607 8.716 78.6252 8.716 77.3524C8.716 76.2459 8.716 54.8921 8.716 53.7406C8.716 52.4679 9.788 51.4323 11.1056 51.4323ZM86.2829 62.4057C86.2829 64.0939 85.1525 65.5322 83.5843 66.0511V57.9568H86.2829V62.4057ZM86.2829 43.05V55.4664H83.5843C83.5843 54.2169 83.5843 44.5861 83.5843 43.05C83.5843 32.9278 79.2907 23.2051 71.758 16.1677L73.6796 14.3116C81.5469 21.6482 86.2829 31.8423 86.2829 43.05ZM44.8611 3.04039C54.7809 3.04039 64.2841 6.43776 71.7714 12.6329C68.6001 15.6962 69.2283 15.0897 69.0058 15.2958C68.0488 16.1325 66.6236 16.2117 65.5629 15.4666C53.2511 6.82193 36.5567 6.76166 24.1593 15.4666C23.055 16.2421 21.5626 16.123 20.6145 15.2058L17.9507 12.6329C25.438 6.4376 34.9412 3.04039 44.8611 3.04039ZM3.43923 43.05C3.43923 31.7977 8.20811 21.6215 16.0427 14.3116L18.0645 16.2643C10.4686 23.402 6.13803 33.2042 6.13803 43.3628V55.4664H3.43923V43.05ZM3.43923 57.9566H6.13786V66.051C4.56966 65.5322 3.43923 64.0939 3.43923 62.4057V57.9566Z" fill="#6A5870"/>
</svg>
